<svg id="그룹_2302" data-name="그룹 2302" xmlns="http://www.w3.org/2000/svg" width="87.604" height="87.604" viewBox="0 0 87.604 87.604">
  <circle id="타원_196" data-name="타원 196" cx="43.802" cy="43.802" r="43.802" transform="translate(0 0)" fill="#a2a2ff"/>
  <g id="comments-Light" transform="translate(21.173 20.68)">
    <rect id="Path" width="46" height="46" fill="rgba(255,255,255,0)"/>
    <path id="comments-Light_1_" d="M523.208,577.083h-.958v-2.875a6.716,6.716,0,0,0-6.708-6.708H500.208a6.716,6.716,0,0,0-6.708,6.708v19.167a.958.958,0,0,0,1.643.671l3.475-3.546h2.549v2.875a6.716,6.716,0,0,0,6.708,6.708H524.8l3.475,3.546a.958.958,0,0,0,1.643-.671V583.792A6.716,6.716,0,0,0,523.208,577.083Zm-24.993,11.5a.958.958,0,0,0-.684.288l-2.114,2.156V574.208a4.8,4.8,0,0,1,4.792-4.792h15.333a4.8,4.8,0,0,1,4.792,4.792v9.583a4.8,4.8,0,0,1-4.792,4.792ZM528,600.61l-2.114-2.156a.959.959,0,0,0-.684-.287H507.875a4.8,4.8,0,0,1-4.792-4.792V590.5h12.458a6.716,6.716,0,0,0,6.708-6.708V579h.958A4.8,4.8,0,0,1,528,583.792Z" transform="translate(-488.708 -562.708)" fill="#fff"/>
  </g>
</svg>
