<svg xmlns="http://www.w3.org/2000/svg" width="36.417" height="36.417" viewBox="0 0 36.417 36.417">
  <path id="comments-Light_1_" d="M523.208,577.083h-.958v-2.875a6.716,6.716,0,0,0-6.708-6.708H500.208a6.716,6.716,0,0,0-6.708,6.708v19.167a.958.958,0,0,0,1.643.671l3.475-3.546h2.549v2.875a6.716,6.716,0,0,0,6.708,6.708H524.8l3.475,3.546a.958.958,0,0,0,1.643-.671V583.792A6.716,6.716,0,0,0,523.208,577.083Zm-24.993,11.5a.958.958,0,0,0-.684.288l-2.114,2.156V574.208a4.8,4.8,0,0,1,4.792-4.792h15.333a4.8,4.8,0,0,1,4.792,4.792v9.583a4.8,4.8,0,0,1-4.792,4.792ZM528,600.61l-2.114-2.156a.959.959,0,0,0-.684-.287H507.875a4.8,4.8,0,0,1-4.792-4.792V590.5h12.458a6.716,6.716,0,0,0,6.708-6.708V579h.958A4.8,4.8,0,0,1,528,583.792Z" transform="translate(-493.5 -567.5)" fill="#a2a2ff"/>
</svg>
