<svg id="그룹_2801" data-name="그룹 2801" xmlns="http://www.w3.org/2000/svg" xmlns:xlink="http://www.w3.org/1999/xlink" width="100" height="90" viewBox="0 0 100 90">
  <defs>
    <clipPath id="clip-path">
      <rect id="사각형_2426" data-name="사각형 2426" width="100" height="90" fill="#8a50ce"/>
    </clipPath>
  </defs>
  <g id="그룹_2800" data-name="그룹 2800" clip-path="url(#clip-path)">
    <path id="패스_3184" data-name="패스 3184" d="M49.205,0h1.587a2.769,2.769,0,0,1,1.554,3.106H53.43c3.009,0,6.018,0,9.027,0a2.341,2.341,0,0,1,2.617,2.579q.01,4.411,0,8.822a2.344,2.344,0,0,1-2.648,2.552q-4.464.009-8.927,0H52.377c0,1.181.043,2.244-.016,3.3a1.606,1.606,0,0,0,.756,1.531c6.222,4.647,12.417,9.33,18.636,13.982a2.864,2.864,0,0,1,1.275,2.56c-.054,2.154-.016,4.311-.016,6.556h1.166c7.539,0,15.078.033,22.616-.029A3.289,3.289,0,0,1,100,46.542V88.43A3.108,3.108,0,0,1,97.19,90q-47.211-.042-94.421-.023C.876,89.977,0,89.114,0,87.249Q0,67.474,0,47.7c0-1.856.876-2.705,2.788-2.706q11.5,0,23.01,0h1.186c0-2.146.081-4.151-.027-6.146a3.487,3.487,0,0,1,1.654-3.26c6.135-4.546,12.216-9.161,18.331-13.733a1.511,1.511,0,0,0,.693-1.368c-.026-5.784.026-11.568-.045-17.351A3.157,3.157,0,0,1,49.205,0M41.271,85.284V84.163q0-7.415,0-14.829a2.354,2.354,0,0,1,2.675-2.62q6-.007,12,0c1.91,0,2.778.848,2.779,2.714q0,7.414,0,14.829v1H68.21a2.377,2.377,0,0,0,.04-.269q0-22.583-.023-45.165a1.719,1.719,0,0,0-.677-1.144C61.964,34.436,56.347,30.24,50.76,26a1.04,1.04,0,0,0-1.518,0q-8.3,6.295-16.65,12.524a1.852,1.852,0,0,0-.871,1.667q.039,22,.019,44v1.082ZM4.828,85.251h22.1V65.2H4.828Zm68.249.006H95.193V65.2H73.077ZM4.814,60.443h22.1V49.688H4.814ZM95.219,49.7H73.08V60.433H95.219ZM46.07,85.279H53.91V71.429H46.07ZM60.236,7.82H52.453v4.573h7.782Z" transform="translate(0)" fill="#8a50ce"/>
    <path id="패스_3185" data-name="패스 3185" d="M216.289,175.637a8.531,8.531,0,1,1-8.7,8.482,8.589,8.589,0,0,1,8.7-8.482m.082,12.4a3.875,3.875,0,1,0-4.015-3.848,4.008,4.008,0,0,0,4.015,3.848" transform="translate(-166.32 -141.503)" fill="#8a50ce"/>
  </g>
</svg>
