<svg id="Arrow---Top" xmlns="http://www.w3.org/2000/svg" width="42.189" height="43.777" viewBox="0 0 42.189 43.777">
  <rect id="사각형_21" data-name="사각형 21" width="42.189" height="43.777" fill="none"/>
  <g id="그룹_27" data-name="그룹 27" transform="translate(5.59 5.331)">
    <g id="그룹_26" data-name="그룹 26">
      <path id="패스_8" data-name="패스 8" d="M3.611,13.925A13.417,13.417,0,0,1,13.3,3.648a21.838,21.838,0,0,1,10.555,0,13.417,13.417,0,0,1,9.684,10.277,26.018,26.018,0,0,1,0,11.2A13.417,13.417,0,0,1,23.85,35.4a21.837,21.837,0,0,1-10.555,0A13.417,13.417,0,0,1,3.611,25.126a25.984,25.984,0,0,1,0-11.2Z" transform="translate(-3 -3)" fill="none" stroke="#8a50ce" stroke-width="2"/>
      <path id="패스_9" data-name="패스 9" d="M13.826,21.354V8.5m0,0L9.5,13.091M13.826,8.5l4.326,4.591" transform="translate(1.747 1.598)" fill="none" stroke="#8a50ce" stroke-linecap="round" stroke-linejoin="round" stroke-width="2"/>
    </g>
  </g>
</svg>
