<svg id="bell-Bold" xmlns="http://www.w3.org/2000/svg" width="48" height="48" viewBox="0 0 48 48">
  <rect id="Path" width="48" height="48" fill="rgba(255,255,255,0)"/>
  <path id="bell-Bold_1_" d="M241.343,1919.036l-2.212-3.69a7.991,7.991,0,0,1-1.138-4.112v-5.254a13.99,13.99,0,0,0-27.98,0v5.254a8,8,0,0,1-1.138,4.11l-2.212,3.692a4.6,4.6,0,0,0,3.946,6.964H218a6,6,0,0,0,12,0h7.394a4.6,4.6,0,0,0,3.948-6.964ZM224,1928a2,2,0,0,1-2-2h4A2,2,0,0,1,224,1928Zm13.918-6.3a.58.58,0,0,1-.524.3H210.607a.6.6,0,0,1-.516-.906l2.212-3.694a12.009,12.009,0,0,0,1.708-6.166v-5.254a9.99,9.99,0,0,1,19.98,0v5.254a12,12,0,0,0,1.708,6.168l2.214,3.692A.583.583,0,0,1,237.919,1921.7Z" transform="translate(-200.001 -1888)" fill="#a2a2ff"/>
</svg>
