<svg id="_001-home" data-name="001-home" xmlns="http://www.w3.org/2000/svg" width="48.208" height="46.112" viewBox="0 0 48.208 46.112">
  <g id="그룹_7" data-name="그룹 7" transform="translate(0 0)">
    <path id="패스_1" data-name="패스 1" d="M47.661,31.709,28.04,12.01c-.025-.025-.051-.05-.078-.074a5.656,5.656,0,0,0-7.531-.016q-.04.036-.078.073L.553,31.7a1.881,1.881,0,1,0,2.66,2.659l1.494-1.488V49.091A7.531,7.531,0,0,0,12.24,56.6H19.02A1.881,1.881,0,0,0,20.9,54.726V39.418h6.591V54.726A1.881,1.881,0,0,0,29.377,56.6h6.591A7.531,7.531,0,0,0,43.5,49.091a1.883,1.883,0,0,0-3.766,0,3.766,3.766,0,0,1-3.766,3.756H31.26V37.54a1.881,1.881,0,0,0-1.883-1.878H19.02a1.881,1.881,0,0,0-1.883,1.878V52.848h-4.9a3.766,3.766,0,0,1-3.766-3.756V29.182q0-.028,0-.056l14.5-14.43a1.885,1.885,0,0,1,2.443.005L39.734,29.08V39.7a1.883,1.883,0,0,0,3.766,0V32.861l1.489,1.495a1.881,1.881,0,0,0,2.672-2.648Z" transform="translate(0 -10.492)" fill="#b0b3ba"/>
  </g>
</svg>
