<svg id="그룹_17" data-name="그룹 17" xmlns="http://www.w3.org/2000/svg" width="36.162" height="36.725" viewBox="0 0 36.162 36.725">
  <g id="그룹_16" data-name="그룹 16">
    <path id="Path_13" data-name="Path 13" d="M18.3,2A16.713,16.713,0,0,1,30.557,7.358,19.251,19.251,0,0,1,34.7,26.2l2.3,5.8a2.312,2.312,0,0,1-.182,2.072,2.043,2.043,0,0,1-1.73.987H28.581A16.909,16.909,0,0,1,18.3,38.725,16.713,16.713,0,0,1,6.049,33.367,18.842,18.842,0,0,1,1,20.362a18.842,18.842,0,0,1,5.049-13A16.713,16.713,0,0,1,18.3,2ZM33,31.38l-1.757-4.429a1.94,1.94,0,0,1-.012-1.395,14.878,14.878,0,0,0,.914-5.194A15.077,15.077,0,0,0,28.11,9.955a13.371,13.371,0,0,0-19.614,0A15.077,15.077,0,0,0,4.461,20.362,15.077,15.077,0,0,0,8.5,30.77,13.372,13.372,0,0,0,18.3,35.052a13.565,13.565,0,0,0,8.609-3.27,1.669,1.669,0,0,1,1.081-.4Z" transform="translate(-1 -2)" fill="#8a50ce"/>
    <circle id="타원_1" data-name="타원 1" cx="1.73" cy="1.73" r="1.73" transform="translate(7.786 16.526)" fill="#8a50ce"/>
    <path id="Ellipse_1_-_Outline" data-name="Ellipse 1 - Outline" d="M2.1-.5A2.6,2.6,0,1,1-.5,2.1,2.6,2.6,0,0,1,2.1-.5Zm0,3.461A.865.865,0,1,0,1.23,2.1.866.866,0,0,0,2.1,2.961Z" transform="translate(7.421 16.108)" fill="#8a50ce"/>
    <circle id="타원_2" data-name="타원 2" cx="1.406" cy="1.406" r="1.406" transform="translate(16.777 16.404)" fill="#8a50ce"/>
    <path id="Ellipse_2_-_Outline" data-name="Ellipse 2 - Outline" d="M2.1-.5A2.6,2.6,0,1,1-.5,2.1,2.6,2.6,0,0,1,2.1-.5Zm0,3.461A.865.865,0,1,0,1.23,2.1.866.866,0,0,0,2.1,2.961Z" transform="translate(15.207 16.108)" fill="#8a50ce"/>
    <circle id="타원_3" data-name="타원 3" cx="1.73" cy="1.73" r="1.73" transform="translate(23.359 16.526)" fill="#8a50ce"/>
    <path id="Ellipse_3_-_Outline" data-name="Ellipse 3 - Outline" d="M2.1-.5A2.6,2.6,0,1,1-.5,2.1,2.6,2.6,0,0,1,2.1-.5Zm0,3.461A.865.865,0,1,0,1.23,2.1.866.866,0,0,0,2.1,2.961Z" transform="translate(22.994 16.108)" fill="#8a50ce"/>
  </g>
</svg>
