<svg id="pin_5_" data-name="pin (5)" xmlns="http://www.w3.org/2000/svg" width="38.727" height="46.112" viewBox="0 0 38.727 46.112">
  <g id="그룹_9" data-name="그룹 9" transform="translate(0)">
    <g id="그룹_8" data-name="그룹 8">
      <path id="패스_2" data-name="패스 2" d="M171.607,95.855a1.8,1.8,0,0,0-.482-3.57,4.958,4.958,0,0,1-.66.044,4.863,4.863,0,1,1,4.863-4.863,4.932,4.932,0,0,1-.064.791,1.8,1.8,0,1,0,3.556.58,8.458,8.458,0,1,0-7.214,7.019Z" transform="translate(-151.102 -71.885)" fill="#b0b3ba"/>
      <path id="패스_3" data-name="패스 3" d="M76.824,377.853a21.843,21.843,0,0,0-5.654-1.82,1.8,1.8,0,1,0-.717,3.53c3.65.742,5.147,1.632,5.578,2.064-.318.319-1.381,1.119-4.505,1.871a49.723,49.723,0,0,1-11.162,1.145A49.722,49.722,0,0,1,49.2,383.5c-3.124-.752-4.187-1.552-4.505-1.871.432-.432,1.928-1.322,5.578-2.064a1.8,1.8,0,0,0-.717-3.53,21.846,21.846,0,0,0-5.654,1.82c-1.926,1.01-2.9,2.281-2.9,3.777,0,2.235,2.176,3.965,6.469,5.141a50.921,50.921,0,0,0,12.895,1.474,50.921,50.921,0,0,0,12.895-1.474c4.292-1.177,6.469-2.907,6.469-5.141C79.727,380.134,78.75,378.863,76.824,377.853Z" transform="translate(-41 -342.133)" fill="#b0b3ba"/>
      <path id="패스_4" data-name="패스 4" d="M97.058,38.068a1.8,1.8,0,0,0,3.045,0,48.948,48.948,0,0,1,5.88-7.121c4.062-4.33,8.262-8.808,8.268-15.459A15.319,15.319,0,0,0,109.639,4.5,15.785,15.785,0,0,0,87.562,4.5,15.38,15.38,0,0,0,83,15.493c.006,6.657,4.186,11.143,8.228,15.481A49.492,49.492,0,0,1,97.058,38.068ZM98.581,3.6a12,12,0,0,1,12.068,11.887c0,5.224-3.383,8.824-7.293,12.994a68.548,68.548,0,0,0-4.774,5.47,69.331,69.331,0,0,0-4.718-5.434C89.97,24.339,86.608,20.73,86.6,15.493A11.817,11.817,0,0,1,98.581,3.6Z" transform="translate(-79.217 0)" fill="#b0b3ba"/>
    </g>
  </g>
</svg>
