<svg id="_002-settings" data-name="002-settings" xmlns="http://www.w3.org/2000/svg" width="46.112" height="46.112" viewBox="0 0 46.112 46.112">
  <g id="그룹_11" data-name="그룹 11" transform="translate(12.609 12.609)">
    <g id="그룹_10" data-name="그룹 10">
      <path id="패스_5" data-name="패스 5" d="M150.447,140a10.447,10.447,0,1,0,3.155,20.409,1.8,1.8,0,0,0-1.087-3.435,6.835,6.835,0,1,1,4.5-4.6,1.8,1.8,0,0,0,3.458,1.011A10.455,10.455,0,0,0,150.447,140Z" transform="translate(-140 -140)" fill="#b0b3ba"/>
    </g>
  </g>
  <g id="그룹_13" data-name="그룹 13">
    <g id="그룹_12" data-name="그룹 12">
      <path id="패스_6" data-name="패스 6" d="M40.708,16.752H39.8a.6.6,0,0,1-.549-.377l-.016-.039a.6.6,0,0,1,.118-.662L40,15.032A5.41,5.41,0,0,0,40,7.39L38.722,6.116a5.4,5.4,0,0,0-7.642,0l-.641.641a.6.6,0,0,1-.662.119l-.034-.014a.6.6,0,0,1-.383-.551V5.4a5.41,5.41,0,0,0-5.4-5.4h-1.8a5.41,5.41,0,0,0-5.4,5.4v.907a.6.6,0,0,1-.381.55l-.035.015a.6.6,0,0,1-.662-.118l-.641-.641a5.4,5.4,0,0,0-7.642,0L6.116,7.39a5.41,5.41,0,0,0,0,7.642l.641.641a.607.607,0,0,1,.115.669l-.011.026a.6.6,0,0,1-.551.383H5.4a5.41,5.41,0,0,0-5.4,5.4v1.8a5.41,5.41,0,0,0,5.4,5.4h.907a.6.6,0,0,1,.549.377l.016.039a.6.6,0,0,1-.118.662l-.641.641a5.4,5.4,0,0,0,0,7.642L7.39,40a5.4,5.4,0,0,0,7.642,0l.641-.641a.6.6,0,0,1,.662-.119l.034.014a.6.6,0,0,1,.383.551v.907a5.41,5.41,0,0,0,5.4,5.4h1.8a5.41,5.41,0,0,0,5.4-5.4V39.8a.6.6,0,0,1,.381-.55l.035-.015a.6.6,0,0,1,.662.118L31.08,40a5.4,5.4,0,0,0,7.642,0L40,38.722a5.4,5.4,0,0,0,0-7.642l-.641-.641a.6.6,0,0,1-.118-.662l.014-.033a.6.6,0,0,1,.551-.383h.907a5.41,5.41,0,0,0,5.4-5.4v-1.8A5.41,5.41,0,0,0,40.708,16.752Zm1.8,7.2a1.8,1.8,0,0,1-1.8,1.8H39.8a4.193,4.193,0,0,0-3.881,2.61l-.012.028a4.2,4.2,0,0,0,.9,4.59l.642.641a1.8,1.8,0,0,1,0,2.547l-1.274,1.274a1.8,1.8,0,0,1-2.547,0l-.642-.642a4.2,4.2,0,0,0-4.592-.9l-.025.011a4.192,4.192,0,0,0-2.61,3.881v.907a1.8,1.8,0,0,1-1.8,1.8h-1.8a1.8,1.8,0,0,1-1.8-1.8V39.8a4.193,4.193,0,0,0-2.612-3.881l-.024-.01a4.253,4.253,0,0,0-1.633-.327,4.175,4.175,0,0,0-2.958,1.225l-.641.642a1.8,1.8,0,0,1-2.547,0L8.663,36.175a1.8,1.8,0,0,1,0-2.547l.641-.641a4.2,4.2,0,0,0,.9-4.59l-.012-.028a4.193,4.193,0,0,0-3.881-2.61H5.4a1.8,1.8,0,0,1-1.8-1.8v-1.8a1.8,1.8,0,0,1,1.8-1.8h.907a4.2,4.2,0,0,0,3.883-2.616l.008-.02a4.2,4.2,0,0,0-.9-4.592l-.641-.641a1.8,1.8,0,0,1,0-2.547L9.937,8.663a1.8,1.8,0,0,1,2.547,0l.642.642a4.2,4.2,0,0,0,4.592.9l.025-.011a4.193,4.193,0,0,0,2.61-3.881V5.4a1.8,1.8,0,0,1,1.8-1.8h1.8a1.8,1.8,0,0,1,1.8,1.8v.907a4.193,4.193,0,0,0,2.612,3.881l.024.01a4.2,4.2,0,0,0,4.592-.9l.641-.642a1.8,1.8,0,0,1,2.547,0l1.274,1.274a1.8,1.8,0,0,1,0,2.547l-.642.642a4.192,4.192,0,0,0-.9,4.585l.014.033a4.193,4.193,0,0,0,3.881,2.61h.907a1.8,1.8,0,0,1,1.8,1.8Z" fill="#b0b3ba"/>
    </g>
  </g>
</svg>
