<svg id="그룹_21" data-name="그룹 21" xmlns="http://www.w3.org/2000/svg" width="32.01" height="33.97" viewBox="0 0 32.01 33.97">
  <g id="그룹_20" data-name="그룹 20">
    <path id="Path_15" data-name="Path 15" d="M18.005,35.97c-6.339,0-10.085-1.1-12.524-3.694S2,25.712,2,18.985,3.041,8.283,5.481,5.694,11.666,2,18.005,2a1.786,1.786,0,0,1,1.73,1.836,1.786,1.786,0,0,1-1.73,1.836c-5.334,0-8.348.783-10.077,2.618S5.461,13.324,5.461,18.985,6.2,27.844,7.928,29.68,12.671,32.3,18.005,32.3c4.066,0,6.818-.466,8.662-1.467a6.674,6.674,0,0,0,3.3-4.733,1.724,1.724,0,0,1,2.11-1.315,1.849,1.849,0,0,1,1.24,2.239A10.285,10.285,0,0,1,28.243,34.1C25.861,35.394,22.7,35.97,18.005,35.97Z" transform="translate(-2 -2)" fill="#8a50ce"/>
    <path id="Path_16" data-name="Path 16" d="M8.73,20.089A1.786,1.786,0,0,1,7,18.252a11.084,11.084,0,0,1,2.073-6.628C10.914,9.219,13.734,8,17.454,8h10.3a1.786,1.786,0,0,1,1.73,1.836,1.786,1.786,0,0,1-1.73,1.836h-10.3c-2.627,0-4.544.763-5.7,2.267a7.261,7.261,0,0,0-1.3,4.313A1.786,1.786,0,0,1,8.73,20.089Z" transform="translate(0.93 2.099)" fill="#8a50ce"/>
    <path id="Path_17" data-name="Path 17" d="M17.73,21.138a1.676,1.676,0,0,1-1.223-.538,1.917,1.917,0,0,1,0-2.6l5.121-5.434L16.507,7.135a1.917,1.917,0,0,1,0-2.6,1.661,1.661,0,0,1,2.447,0L25.3,11.271a1.917,1.917,0,0,1,0,2.6L18.954,20.6A1.675,1.675,0,0,1,17.73,21.138Z" transform="translate(6.205 -0.634)" fill="#8a50ce"/>
  </g>
</svg>
