<svg xmlns="http://www.w3.org/2000/svg" width="25.07" height="30.321" viewBox="0 0 25.07 30.321">
  <g id="그룹_25" data-name="그룹 25" transform="translate(1 1)">
    <g id="그룹_24" data-name="그룹 24">
      <path id="패스_7" data-name="패스 7" d="M27.071,23.827V14.242c0-5.77,0-8.656-1.69-10.448S20.973,2,15.535,2,7.378,2,5.69,3.793,4,8.471,4,14.242v9.585C4,27.68,4,29.6,5.161,30.249s2.65-.454,5.632-2.652l1.452-1.071c1.592-1.171,2.388-1.758,3.29-1.758s1.7.588,3.29,1.76L20.278,27.6c2.982,2.2,4.471,3.295,5.632,2.65S27.071,27.678,27.071,23.827Z" transform="translate(-4 -2)" fill="none" stroke="#8a50ce" stroke-linecap="round" stroke-width="2"/>
    </g>
  </g>
</svg>
