<svg id="Icon" xmlns="http://www.w3.org/2000/svg" width="44.866" height="46.111" viewBox="0 0 44.866 46.111">
  <path id="Emojis" d="M22.433,46.111A21.986,21.986,0,0,1,6.57,39.358a23.511,23.511,0,0,1,0-32.605,22.008,22.008,0,0,1,31.725,0,23.511,23.511,0,0,1,0,32.605A21.986,21.986,0,0,1,22.433,46.111ZM9.856,29.6h0a13.64,13.64,0,0,0,4.692,6.835,12.878,12.878,0,0,0,15.768,0A13.649,13.649,0,0,0,35.01,29.6H9.856ZM31.61,13.624a3.145,3.145,0,1,0,3.058,3.145A3.107,3.107,0,0,0,31.61,13.624Zm-18.355,0a3.145,3.145,0,1,0,3.06,3.145A3.107,3.107,0,0,0,13.256,13.624Z" transform="translate(0)" fill="#bfc4d3"/>
</svg>
