<svg xmlns="http://www.w3.org/2000/svg" width="173.878" height="172.88" viewBox="0 0 173.878 172.88">
  <g>
    <path d="M157.191,131.731l16.687,17.026c-5.227,3.869-10.331,8.331-16.051,11.769A85.3,85.3,0,0,1,34.527,119.5c-3.032-7.437-4.362-15.585-6.279-23.454-.96-3.942.134-6.382,4.994-5.98a91.143,91.143,0,0,0,12.444,0c3.355-.183,4.528,1.087,5.014,4.431,2.382,16.392,9.694,30.193,22.55,40.844a62.355,62.355,0,0,0,81.267-1.357c.855-.761,1.752-1.475,2.674-2.249" fill="#8a50ce"/>
    <path d="M153.28,46.386c-4.778,4.62-9.041,8.771-13.339,12.885-2.26,2.165-4.632,2.193-7.158.342-7.122-5.22-15.234-6.793-23.913-6.776q-29.1.058-58.191-.269c-10.863-.1-19.731-7.319-20.738-16.354-.453-4.071.429-6,5.167-6,26.028-.011,52.055-.376,78.083-.517,15.27-.082,28.389,5.207,40.089,16.688" fill="#8a50ce"/>
    <path d="M173.766,24.523,157.333,40.8a21.982,21.982,0,0,1-2.379-1.671c-12.328-10.931-26.8-16.181-43.2-16.294-10.454-.072-20.909-.066-31.363-.116-10.97-.052-18.862-6.663-21.065-17.414C58.647,1.985,59.328.232,63.1.25c20.4.1,40.858-.858,61.177.431,19.106,1.212,35.445,10.108,49.484,23.842" fill="#8a50ce"/>
    <path d="M153.689,126.272c-18.794,16.7-38.756,21.444-60.643,12.893-21.835-8.531-33.378-25.524-36.077-49.535,7.465,0,14.533-.132,21.584.158.941.039,2.291,2.1,2.616,3.422,5.816,23.705,30.356,33.55,50.987,20.241,3.418-2.2,5.908-2,8.732.847,3.939,3.965,8.154,7.655,12.8,11.974" fill="#8a50ce"/>
    <path d="M92.559,60.314c-6.3,6.175-10.422,12.753-11.85,20.846-.145.814-2.231,1.839-3.412,1.834-19.886-.082-39.779-.054-59.654-.624C8.4,82.105.892,74,.059,64.99-.218,62,.4,60.276,3.918,60.265c28.505-.091,57.01-.284,85.515-.426a25.835,25.835,0,0,1,3.126.475" fill="#8a50ce"/>
  </g>
</svg>
