<?xml version="1.0" encoding="UTF-8"?>
<svg id="Layer_2" data-name="Layer 2" xmlns="http://www.w3.org/2000/svg" viewBox="0 0 347.62 53">
  <g id="Layer_1-2" data-name="Layer 1">
    <g id="COMMAN" style="isolation: isolate;">
      <g style="isolation: isolate;">
        <path fill="#8a50ce" stroke-width="0" d="M44.79,48.82c-3.96,2.81-9.22,4.1-15.7,4.1C12.75,52.92,0,42.84,0,26.5S12.75.07,29.09.07c6.48,0,11.74,1.22,15.7,4.03v10.73c-3.02-2.74-8.06-4.97-13.75-4.97-9.79,0-17.21,6.62-17.21,16.63s7.42,16.63,17.21,16.63c5.69,0,10.73-2.3,13.75-4.97v10.66Z"/>
        <path fill="#8a50ce" stroke-width="0" d="M78.63,53c-16.63,0-28.59-11.16-28.59-26.5S62.06,0,78.77,0s28.8,10.87,28.8,26.5c0,12.75-9,26.5-28.95,26.5ZM78.77,10.08c-8.86,0-14.83,6.91-14.83,16.42s6.12,16.42,14.83,16.42,14.83-6.91,14.83-16.42-5.98-16.42-14.83-16.42Z"/>
        <path fill="#8a50ce" stroke-width="0" d="M170.07,51.63h-12.53v-30.6l-13.18,18.36-3.96-.07-12.96-18v30.31h-12.53V13.25c0-5.33-.94-9.07-4.75-10.37v-1.58h16.92l15.84,21.39,15.63-21.39h11.52v50.33Z"/>
        <path fill="#8a50ce" stroke-width="0" d="M236.02,51.63h-12.53v-30.6l-13.18,18.36-3.96-.07-12.96-18v30.31h-12.53V13.25c0-5.33-.94-9.07-4.75-10.37v-1.58h16.92l15.84,21.39,15.62-21.39h11.52v50.33Z"/>
        <path fill="#8a50ce" stroke-width="0" d="M294.41,51.63h-14.11l-4.18-10.8h-19.51l-3.89,10.8h-12.53L260.28,1.3h13.39l20.74,50.33ZM272.88,32.33l-5.62-14.54c-.72-1.8-.86-2.88-1.08-4.25h-.14c-.22,1.37-.5,2.45-1.08,4.25l-5.26,14.54h13.18Z"/>
        <path fill="#8a50ce" stroke-width="0" d="M347.62,51.63h-10.3l-25.99-30.89v30.89h-12.31V13.25c0-5.33-.94-9.07-4.75-10.37v-1.58h16.27l24.84,29.52-.07-29.52h12.31v50.33Z"/>
      </g>
    </g>
  </g>
</svg>
