<svg xmlns="http://www.w3.org/2000/svg" xmlns:xlink="http://www.w3.org/1999/xlink" width="48" height="40" viewBox="0 0 48 40">
  <defs>
    <clipPath id="clip-path">
      <rect id="사각형_2418" data-name="사각형 2418" width="48" height="40" fill="#b0b3ba"/>
    </clipPath>
  </defs>
  <g id="그룹_2795" data-name="그룹 2795" transform="translate(0 0)">
    <g id="그룹_2794" data-name="그룹 2794" transform="translate(0 0)" clip-path="url(#clip-path)">
      <path id="패스_3170" data-name="패스 3170" d="M43.016,40a10.446,10.446,0,0,1-1.687-.673,4.329,4.329,0,0,1-2.158-3.818c-.036-2.17-.042-4.342,0-6.511a4.445,4.445,0,0,1,2.653-4.145c.215-.107.351-.182.35-.477-.012-3.981-.008-7.963-.009-11.946,0-.064-.012-.129-.024-.239-1,.312-1.984.606-2.957.945-.116.039-.218.32-.219.491-.015,2.1-.042,4.211,0,6.315a4.084,4.084,0,0,1-1.625,3.449,11.786,11.786,0,0,1-4.451,2.09,35.288,35.288,0,0,1-12.409.94,26.019,26.019,0,0,1-7.04-1.491,8.885,8.885,0,0,1-3.294-2,3.792,3.792,0,0,1-1.121-2.8c.017-2.17,0-4.341.012-6.511a.49.49,0,0,0-.41-.571q-3.23-1-6.447-2.032A3.165,3.165,0,0,1,0,9.055V8.173a3.024,3.024,0,0,1,1.939-1.9c.219-.085.438-.173.662-.242,5.732-1.8,11.459-3.61,17.2-5.381A13.738,13.738,0,0,1,27.976.595C33.8,2.362,39.6,4.211,45.4,6.047a5.923,5.923,0,0,1,1.565.742,2.106,2.106,0,0,1,.026,3.6,6.631,6.631,0,0,1-1.564.744.567.567,0,0,0-.462.634c.015,4.16.009,8.321.009,12.481v.43c.095.05.162.091.233.126s.174.072.257.116a4.483,4.483,0,0,1,2.5,4.057c.05,2.169.036,4.339,0,6.51a4.225,4.225,0,0,1-1.732,3.517,12.114,12.114,0,0,1-2.1.993Zm.728-31.384c-.21-.08-.324-.129-.44-.165C38.035,6.8,32.768,5.129,27.495,3.493a11.294,11.294,0,0,0-6.746-.067C15.392,5.058,10.057,6.767,4.714,8.446c-.125.039-.246.091-.444.165.221.074.353.119.486.162,5.3,1.662,10.594,3.344,15.9,4.976a11.093,11.093,0,0,0,6.564.027c4.4-1.329,8.781-2.735,13.171-4.112l3.351-1.048m-31.9,5.45v.617c0,1.761.012,3.523-.008,5.284a1.059,1.059,0,0,0,.477,1.039,19.069,19.069,0,0,0,2.674,1.356A24.125,24.125,0,0,0,22.111,23.6a31.417,31.417,0,0,0,10.3-1.03,9.735,9.735,0,0,0,3.075-1.39,1.466,1.466,0,0,0,.674-1.342c-.042-1.728-.014-3.457-.015-5.187,0-.171-.017-.341-.029-.546-.176.042-.3.064-.413.1-2.178.683-4.37,1.323-6.531,2.061a15.046,15.046,0,0,1-8.074.6c-1.613-.341-3.182-.917-4.767-1.4-1.463-.447-2.922-.91-4.489-1.4M41.968,32.23c0,1.026-.008,2.053,0,3.079a1.641,1.641,0,0,0,1.583,1.747,1.658,1.658,0,0,0,1.616-1.769q.009-3.056,0-6.11a1.607,1.607,0,1,0-3.2-.027c-.009,1.026,0,2.053,0,3.079" transform="translate(0 0)" fill="#b0b3ba"/>
    </g>
  </g>
</svg>
