<svg xmlns="http://www.w3.org/2000/svg" width="39" height="37" viewBox="0 0 39 37">
  <path id="comment-dots-Regular_1_" d="M474.75,1301.25h-20a9.511,9.511,0,0,0-9.5,9.5v26a1.5,1.5,0,0,0,.926,1.386,1.5,1.5,0,0,0,1.634-.326l4.828-4.828a2.484,2.484,0,0,1,1.768-.732H474.75a9.511,9.511,0,0,0,9.5-9.5v-12A9.511,9.511,0,0,0,474.75,1301.25Zm6.5,21.5a6.508,6.508,0,0,1-6.5,6.5H454.408a5.463,5.463,0,0,0-3.89,1.612l-2.268,2.268v-22.38a6.508,6.508,0,0,1,6.5-6.5h20a6.508,6.508,0,0,1,6.5,6.5Zm-22.5-6a2,2,0,1,1-2-2A2,2,0,0,1,458.75,1316.75Zm8,0a2,2,0,1,1-2-2A2,2,0,0,1,466.75,1316.75Zm8,0a2,2,0,1,1-2-2A2,2,0,0,1,474.75,1316.75Z" transform="translate(-445.25 -1301.25)" fill="#b0b3ba"/>
</svg>
