<svg id="그룹_2803" data-name="그룹 2803" xmlns="http://www.w3.org/2000/svg" xmlns:xlink="http://www.w3.org/1999/xlink" width="100" height="106.494" viewBox="0 0 100 106.494">
  <defs>
    <clipPath id="clip-path">
      <rect id="사각형_2427" data-name="사각형 2427" width="100" height="106.494" fill="#8a50ce" stroke="#8a50ce" stroke-width="2"/>
    </clipPath>
  </defs>
  <g id="그룹_2802" data-name="그룹 2802" clip-path="url(#clip-path)">
    <path id="패스_3186" data-name="패스 3186" d="M0,52.789c.126-.51.255-1.019.379-1.529a12.384,12.384,0,0,1,18.17-8.166c.268.142.538.279.946.491-.175-1.661.894-2.208,2.119-2.711,7.9-3.247,15.783-6.544,23.694-9.767a1.373,1.373,0,0,0,1.01-1.685,26.681,26.681,0,0,1,18.366-28.1C66.481.726,68.374.432,70.223,0H75.73a50.89,50.89,0,0,1,5.859,1.425C91.86,5.2,98.128,12.51,99.726,23.346A26.7,26.7,0,0,1,77.534,53.266c-.37.057-.732.168-1.205.278V54.92q0,14.053,0,28.105c0,3.649-1.86,6.316-5,7.245a6.536,6.536,0,0,1-8.416-6.215,1.582,1.582,0,0,0-1.192-1.724q-14.1-5.86-28.171-11.8c-.347-.146-.7-.265-1.28-.48,0,.711,0,1.295,0,1.878-.019,2.026.082,4.062-.092,6.074A5.609,5.609,0,0,1,26.4,83.354c-.448.016-.9,0-1.473,0,0,.715,0,1.28,0,1.844-.038,3.975.082,7.96-.157,11.923a10.4,10.4,0,0,1-9.569,9.361A10.574,10.574,0,0,1,4.145,98a15.247,15.247,0,0,1-.22-2.617Q3.9,79.834,3.93,64.29a2.789,2.789,0,0,0-.784-2.133,12.121,12.121,0,0,1-2.907-6A3.963,3.963,0,0,0,0,55.543V52.789m49.241-6.617c2.172-.553,4.08-1.053,6-1.522a4.125,4.125,0,0,1,3.8.576,22.187,22.187,0,0,0,17.476,4.391A22.834,22.834,0,0,0,95.606,22.1a23.084,23.084,0,0,0-45.674,6.023A22.808,22.808,0,0,0,52.946,38.1a3.016,3.016,0,0,1-.1,3.532c-.479.689-.985,1.361-1.508,2.017-.632.791-1.295,1.558-2.1,2.52M47.1,34.648c-.118.041-.262.084-.4.141q-11.26,4.638-22.526,9.263a1.3,1.3,0,0,0-.967,1.418q.059,7.972,0,15.945a1.293,1.293,0,0,0,.984,1.4q16.019,6.741,32.019,13.528c2.1.886,4.188,1.778,6.375,2.706.038-.318.078-.495.078-.672,0-8.565.012-17.131-.029-25.7a1.57,1.57,0,0,0-.744-1.042c-1.4-.852-2.911-1.532-4.257-2.454a2.66,2.66,0,0,0-2.541-.408c-1.6.5-3.2.993-4.835,1.37a23.451,23.451,0,0,1-4.6.764,2.229,2.229,0,0,1-2.017-3.324,9.565,9.565,0,0,1,1.324-2c1.375-1.639,2.818-3.222,4.194-4.861a1.133,1.133,0,0,0,.193-.957c-.7-1.685-1.459-3.341-2.253-5.125M7.8,65.777v3.085c0,8.983-.018,17.967.009,26.95a6.941,6.941,0,0,0,6.739,7.01,6.855,6.855,0,0,0,6.783-6.456c.056-10.015.026-20.031.009-30.046a1.289,1.289,0,0,0-.376-.84,8.3,8.3,0,0,0-1.061-.788,34.058,34.058,0,0,1-6.026,1.639A32.625,32.625,0,0,1,7.8,65.777M19.52,53.953c0-1.492.05-2.986-.027-4.474a2.5,2.5,0,0,0-.591-1.5A8.4,8.4,0,0,0,10.777,45.4a8.75,8.75,0,0,0-6.882,7.253,9.02,9.02,0,0,0,4.977,9.266,8.6,8.6,0,0,0,9.985-1.9,2.77,2.77,0,0,0,.634-1.6c.086-1.487.03-2.982.029-4.473m47.246-.89V77.331c0,2.178-.023,4.356.009,6.533a2.867,2.867,0,0,0,3.545,2.861,3.143,3.143,0,0,0,2.231-3.216q.008-14.44,0-28.881c0-.295-.048-.59-.07-.847l-5.716-.717m-41.7,13.975V79.565c2.535.263,3.6-.372,3.626-2.134.036-2.745.021-5.492-.006-8.237a1.056,1.056,0,0,0-.372-.815c-.987-.469-2.017-.845-3.248-1.342" fill="#8a50ce" stroke="#8a50ce" stroke-width="2"/>
    <path id="패스_3187" data-name="패스 3187" d="M293.925,58.876c-.8,0-1.609.058-2.405-.012a3.676,3.676,0,0,1-3.313-3.268c-.334-3.842-.62-7.689-.93-11.533-.19-2.36-.349-4.723-.6-7.077a3.735,3.735,0,0,1,3.643-4.31c2.215-.051,4.434-.043,6.649-.01,2.78.041,4.436,1.755,4.256,4.526-.269,4.153-.643,8.3-.974,12.449-.124,1.56-.3,3.119-.369,4.681-.153,3.241-1.544,4.592-4.815,4.6h-1.147v-.043M295.879,55c.492-6.233.976-12.371,1.464-18.545h-7.112c.5,6.284.991,12.471,1.493,18.786L295.879,55" transform="translate(-220.721 -25.132)" fill="#8a50ce" stroke="#8a50ce" stroke-width="2"/>
    <path id="패스_3188" data-name="패스 3188" d="M296.41,164.978a6.234,6.234,0,1,1,6.227-6.24,6.113,6.113,0,0,1-6.227,6.24m2.528-6.274a2.533,2.533,0,1,0-2.494,2.574,2.489,2.489,0,0,0,2.494-2.574" transform="translate(-223.429 -117.43)" fill="#8a50ce" stroke="#8a50ce" stroke-width="2"/>
  </g>
</svg>
