<svg id="globe-Regular" xmlns="http://www.w3.org/2000/svg" width="100" height="100" viewBox="0 0 100 100">
  <rect id="Path" width="100" height="100" fill="rgba(255,255,255,0)"/>
  <path id="globe-Regular_1_" d="M620.158,1111.341a40.358,40.358,0,0,0-32.467-26.688,42.158,42.158,0,0,0-11.633,0,40.341,40.341,0,0,0-32.454,26.654,40.26,40.26,0,0,0-.012,27.1,40.358,40.358,0,0,0,32.467,26.688,41.93,41.93,0,0,0,5.817.4,41.3,41.3,0,0,0,5.817-.408,40.341,40.341,0,0,0,32.454-26.654,40.248,40.248,0,0,0,.012-27.092Zm-7.683-2.087H599.8a67.868,67.868,0,0,0-6.012-16.575A34.024,34.024,0,0,1,612.475,1109.254Zm3.775,15.621a33.713,33.713,0,0,1-1.337,9.379H600.942a61.152,61.152,0,0,0,0-18.75h13.971A33.725,33.725,0,0,1,616.25,1124.874Zm-47.133,9.379a56.484,56.484,0,0,1,0-18.75h25.521a56.632,56.632,0,0,1,0,18.75Zm-20.279,0a33.527,33.527,0,0,1,0-18.75h13.971a60.969,60.969,0,0,0,0,18.75Zm36.575-43.509a61.686,61.686,0,0,1,7.967,18.513H570.366a61.7,61.7,0,0,1,7.971-18.508,35.163,35.163,0,0,1,3.538-.246A34.057,34.057,0,0,1,585.412,1090.745Zm-15.45,1.938a67.715,67.715,0,0,0-6.012,16.575H551.275A33.993,33.993,0,0,1,569.962,1092.683ZM551.279,1140.5h12.675a67.926,67.926,0,0,0,6.008,16.562A34.014,34.014,0,0,1,551.279,1140.5Zm27.058,18.5a61.786,61.786,0,0,1-7.967-18.5h23.008a61.811,61.811,0,0,1-7.963,18.5A35.948,35.948,0,0,1,578.337,1159Zm15.45-1.938A67.708,67.708,0,0,0,599.8,1140.5h12.675A34.006,34.006,0,0,1,593.787,1157.066Z" transform="translate(-531.875 -1074.874)" fill="#8a50ce"/>
</svg>
