<svg id="그룹_17" data-name="그룹 17" xmlns="http://www.w3.org/2000/svg" width="36" height="36" viewBox="0 0 36 36">
  <g id="그룹_16" data-name="그룹 16">
    <path id="Path_13" data-name="Path 13" d="M18.225,2a16.759,16.759,0,0,1,12.2,5.252,18.641,18.641,0,0,1,4.122,18.466l2.29,5.683a2.237,2.237,0,0,1-.181,2.031,2.04,2.04,0,0,1-1.722.968H28.458A17,17,0,0,1,18.225,38a16.759,16.759,0,0,1-12.2-5.252A18.315,18.315,0,0,1,1,20,18.315,18.315,0,0,1,6.026,7.252,16.759,16.759,0,0,1,18.225,2ZM32.857,30.8l-1.749-4.341a1.875,1.875,0,0,1-.012-1.367A14.385,14.385,0,0,0,32.006,20,14.655,14.655,0,0,0,27.989,9.8a13.452,13.452,0,0,0-19.526,0A14.655,14.655,0,0,0,4.445,20,14.655,14.655,0,0,0,8.462,30.2a13.41,13.41,0,0,0,9.763,4.2,13.627,13.627,0,0,0,8.57-3.206,1.677,1.677,0,0,1,1.076-.394Z" transform="translate(-1 -2)" fill="#a2a2ff"/>
    <circle id="타원_1" data-name="타원 1" cx="1.73" cy="1.73" r="1.73" transform="translate(7.748 16.166)" fill="#a2a2ff"/>
    <path id="Ellipse_1_-_Outline" data-name="Ellipse 1 - Outline" d="M2.1-.5A2.6,2.6,0,1,1-.5,2.1,2.6,2.6,0,0,1,2.1-.5Zm0,3.461A.865.865,0,1,0,1.23,2.1.866.866,0,0,0,2.1,2.961Z" transform="translate(7.385 15.749)" fill="#a2a2ff"/>
    <circle id="타원_2" data-name="타원 2" cx="1.406" cy="1.406" r="1.406" transform="translate(16.696 16.054)" fill="#a2a2ff"/>
    <path id="Ellipse_2_-_Outline" data-name="Ellipse 2 - Outline" d="M2.1-.5A2.6,2.6,0,1,1-.5,2.1,2.6,2.6,0,0,1,2.1-.5Zm0,3.461A.865.865,0,1,0,1.23,2.1.866.866,0,0,0,2.1,2.961Z" transform="translate(15.131 15.749)" fill="#a2a2ff"/>
    <circle id="타원_3" data-name="타원 3" cx="1.73" cy="1.73" r="1.73" transform="translate(23.243 16.166)" fill="#a2a2ff"/>
    <path id="Ellipse_3_-_Outline" data-name="Ellipse 3 - Outline" d="M2.1-.5A2.6,2.6,0,1,1-.5,2.1,2.6,2.6,0,0,1,2.1-.5Zm0,3.461A.865.865,0,1,0,1.23,2.1.866.866,0,0,0,2.1,2.961Z" transform="translate(22.876 15.749)" fill="#a2a2ff"/>
  </g>
</svg>
