<svg id="그룹_21" data-name="그룹 21" xmlns="http://www.w3.org/2000/svg" width="36" height="36" viewBox="0 0 36 36">
  <g id="그룹_20" data-name="그룹 20">
    <path id="Path_15" data-name="Path 15" d="M20.04,38C12.9,38,8.673,36.829,5.923,34.085S2,27.129,2,20,3.173,8.658,5.923,5.915,12.9,2,20.04,2a1.946,1.946,0,1,1,0,3.892c-6.013,0-9.41.83-11.359,2.775S5.9,14,5.9,20s.832,9.389,2.781,11.333,5.346,2.775,11.359,2.775c4.582,0,7.685-.494,9.764-1.555a7.107,7.107,0,0,0,3.723-5.015,1.95,1.95,0,0,1,3.775.979,10.969,10.969,0,0,1-5.722,7.5C28.895,37.389,25.335,38,20.04,38Z" transform="translate(-2 -2)" fill="#a2a2ff"/>
    <path id="Path_16" data-name="Path 16" d="M8.73,20.089A1.786,1.786,0,0,1,7,18.252a11.084,11.084,0,0,1,2.073-6.628C10.914,9.219,13.734,8,17.454,8h10.3a1.786,1.786,0,0,1,1.73,1.836,1.786,1.786,0,0,1-1.73,1.836h-10.3c-2.627,0-4.544.763-5.7,2.267a7.261,7.261,0,0,0-1.3,4.313A1.786,1.786,0,0,1,8.73,20.089Z" transform="translate(4.92 3.036)" fill="#a2a2ff"/>
    <path id="Path_17" data-name="Path 17" d="M17.73,21.138a1.676,1.676,0,0,1-1.223-.538,1.917,1.917,0,0,1,0-2.6l5.121-5.434L16.507,7.135a1.917,1.917,0,0,1,0-2.6,1.661,1.661,0,0,1,2.447,0L25.3,11.271a1.917,1.917,0,0,1,0,2.6L18.954,20.6A1.675,1.675,0,0,1,17.73,21.138Z" transform="translate(10.195 -0.634)" fill="#a2a2ff"/>
  </g>
</svg>
