<svg xmlns="http://www.w3.org/2000/svg" width="38" height="37.874" viewBox="0 0 38 37.874">
  <g id="그룹_25" data-name="그룹 25" transform="translate(1 1)">
    <g id="그룹_24" data-name="그룹 24">
      <path id="패스_7" data-name="패스 7" d="M40,29.637V17.5c0-7.306,0-10.961-2.637-13.229S30.485,2,22,2,9.272,2,6.637,4.271,4,10.194,4,17.5V29.637c0,4.879,0,7.316,1.811,8.132s4.135-.575,8.788-3.358l2.266-1.356c2.484-1.482,3.726-2.226,5.135-2.226s2.651.744,5.135,2.228L29.4,34.413c4.653,2.78,6.977,4.171,8.789,3.356S40,34.513,40,29.637Z" transform="translate(-4 -2)" fill="none" stroke="#a2a2ff" stroke-linecap="round" stroke-width="2"/>
    </g>
  </g>
</svg>
