<svg id="calendar-Regular" xmlns="http://www.w3.org/2000/svg" width="100" height="100" viewBox="0 0 100 100">
  <rect id="Path" width="100" height="100" fill="rgba(255,255,255,0)"/>
  <path id="calendar-Regular_1_" d="M458.708,1232.417h-1.042v-1.042a3.125,3.125,0,0,0-6.25,0v1.042H424.333v-1.042a3.125,3.125,0,0,0-6.25,0v1.042h-1.042a19.815,19.815,0,0,0-19.792,19.792v37.5a19.815,19.815,0,0,0,19.792,19.792h41.667a19.815,19.815,0,0,0,19.792-19.792v-37.5A19.815,19.815,0,0,0,458.708,1232.417Zm-41.667,6.25h1.042v5.208a3.125,3.125,0,0,0,6.25,0v-5.208h27.083v5.208a3.125,3.125,0,0,0,6.25,0v-5.208h1.042a13.557,13.557,0,0,1,13.542,13.542v1.042H403.5v-1.042A13.557,13.557,0,0,1,417.042,1238.667Zm41.667,64.583H417.042a13.557,13.557,0,0,1-13.542-13.542V1259.5h68.75v30.208A13.557,13.557,0,0,1,458.708,1303.25Zm0-30.208a4.167,4.167,0,1,1-4.167-4.167A4.168,4.168,0,0,1,458.708,1273.042Zm-16.667,0a4.167,4.167,0,1,1-4.167-4.167A4.168,4.168,0,0,1,442.042,1273.042Zm-16.667,0a4.167,4.167,0,1,1-4.167-4.167A4.168,4.168,0,0,1,425.375,1273.042Zm33.333,16.667a4.167,4.167,0,1,1-4.167-4.167A4.168,4.168,0,0,1,458.708,1289.708Zm-16.667,0a4.167,4.167,0,1,1-4.167-4.167A4.168,4.168,0,0,1,442.042,1289.708Zm-16.667,0a4.167,4.167,0,1,1-4.167-4.167A4.168,4.168,0,0,1,425.375,1289.708Z" transform="translate(-387.875 -1218.875)" fill="#8a50ce"/>
</svg>
